<svg xmlns="http://www.w3.org/2000/svg" width="20.535" height="20.535" viewBox="0 0 20.535 20.535">
  <defs>
    <style>
      .cls-1 {
        fill: #fff;
        fill-rule: evenodd;
      }
    </style>
  </defs>
  <g id="noun_Phone_2202395" transform="translate(16.755 37.843)">
    <g id="Grupo_79" data-name="Grupo 79" transform="translate(-49.708 -70.843)">
      <path id="Trazado_102" data-name="Trazado 102" class="cls-1" d="M38.492,40.382a31.128,31.128,0,0,0,7.613,7.613l1.846-1.846a1.578,1.578,0,0,1,2.23,0l2.845,2.845a1.578,1.578,0,0,1,0,2.23L51.18,53.07c-3.614,3.537-21.3-14.149-17.763-17.686l1.922-1.922a1.578,1.578,0,0,1,2.23,0l2.768,2.845a1.578,1.578,0,0,1,0,2.23Z" transform="translate(0 0)"/>
    </g>
  </g>
</svg>
