<svg id="facebook-logo" xmlns="http://www.w3.org/2000/svg" width="21.291" height="21.291" viewBox="0 0 21.291 21.291">
  <defs>
    <style>
      .cls-1 {
        fill: #fff;
      }
    </style>
  </defs>
  <path id="Facebook__x28_alt_x29_" class="cls-1" d="M21.291,3.549A3.678,3.678,0,0,0,17.742,0H3.548A3.678,3.678,0,0,0,0,3.549V17.742a3.678,3.678,0,0,0,3.549,3.549h7.1V13.248h-2.6V9.7h2.6V8.317c0-2.384,1.79-4.532,3.992-4.532h2.868V7.333H14.637c-.314,0-.68.381-.68.952V9.7h3.548v3.548H13.957v8.043h3.785a3.678,3.678,0,0,0,3.548-3.549Z" transform="translate(0 0)"/>
</svg>
