<svg xmlns="http://www.w3.org/2000/svg" width="110.1" height="134.643" viewBox="0 0 110.1 134.643">
  <defs>
    <style>
      .cls-1 {
        fill: #0061a8;
      }

      .cls-2 {
        fill: #fff;
      }

      .cls-3 {
        fill: #e14908;
      }
    </style>
  </defs>
  <g id="Grupo_31" data-name="Grupo 31" transform="translate(-266.724 -30.281)">
    <g id="Grupo_21" data-name="Grupo 21" transform="translate(266.724 30.281)">
      <path id="Trazado_46" data-name="Trazado 46" class="cls-1" d="M367.841,30.281H275.707a9.009,9.009,0,0,0-8.983,8.983V138.92h110.1V39.264A9.009,9.009,0,0,0,367.841,30.281Z" transform="translate(-266.724 -30.281)"/>
      <circle id="Elipse_10" data-name="Elipse 10" class="cls-2" cx="42.48" cy="42.48" r="42.48" transform="translate(12.57 11.997)"/>
    </g>
    <g id="Grupo_27" data-name="Grupo 27" transform="translate(266.724 54.633)">
      <g id="Grupo_22" data-name="Grupo 22" transform="translate(25.699 0.91)">
        <path id="Trazado_47" data-name="Trazado 47" class="cls-3" d="M320.6,71.544a25.718,25.718,0,0,1,27.547-.087,13.551,13.551,0,0,1,2.9-2.635,29.5,29.5,0,0,0-33.032-.125A17.754,17.754,0,0,1,320.6,71.544Z" transform="translate(-304.951 -63.704)"/>
        <path id="Trazado_48" data-name="Trazado 48" class="cls-3" d="M357.373,87.455a17.318,17.318,0,0,1-3.172,2.281,25.7,25.7,0,1,1-47.952-.009,8.4,8.4,0,0,1-3.219-2.171,29.5,29.5,0,1,0,54.343-.1Z" transform="translate(-300.727 -69.504)"/>
      </g>
      <g id="Grupo_23" data-name="Grupo 23" transform="translate(67.973)">
        <path id="Trazado_49" data-name="Trazado 49" class="cls-3" d="M363.44,62.972c.771.712,0,4.2,0,4.2a1.887,1.887,0,0,1-2.957-.4S361.1,60.812,363.44,62.972Z" transform="translate(-357.592 -62.5)"/>
        <path id="Trazado_50" data-name="Trazado 50" class="cls-3" d="M361.484,70.694a3.18,3.18,0,0,1,3.651-.219c.868.372,5.4,5.841,6.012,9s-4.771,5.135-6.572,5.622-2.917-1.46-2.917-1.46a1.888,1.888,0,0,1-1.756-.973c-.973-1.436,1.071-2.969,2.044-3.6s4.32-3.128,4.7-3.969c.256-1.042-5.312,3.58-5.549,3.78s-2.227,2.044-2.793,1.332c-1.132-1.277-.365-2.19.822-2.8a32.141,32.141,0,0,0,5.932-4.74c.949-1.186-6.955,4.728-7.448,4.74C354.6,77.144,359.513,72.106,361.484,70.694Zm.611,12.373s7.08-3.952,6.569-5.266C368.664,77.8,361.521,81.67,362.1,83.067Z" transform="translate(-356.658 -64.333)"/>
      </g>
      <g id="Grupo_24" data-name="Grupo 24" transform="translate(27.379)">
        <path id="Trazado_51" data-name="Trazado 51" class="cls-3" d="M314.333,62.972c-.771.712,0,4.2,0,4.2a1.887,1.887,0,0,0,2.957-.4S316.675,60.812,314.333,62.972Z" transform="translate(-305.646 -62.5)"/>
        <path id="Trazado_52" data-name="Trazado 52" class="cls-3" d="M312.66,70.694a3.179,3.179,0,0,0-3.651-.219c-.868.372-5.4,5.841-6.012,9s4.771,5.135,6.571,5.622,2.917-1.46,2.917-1.46a1.888,1.888,0,0,0,1.757-.973c.973-1.436-1.071-2.969-2.044-3.6s-4.32-3.128-4.7-3.969c-.255-1.042,5.312,3.58,5.549,3.78s2.227,2.044,2.793,1.332c1.131-1.277.365-2.19-.822-2.8a32.143,32.143,0,0,1-5.932-4.74c-.948-1.186,6.954,4.728,7.447,4.74C319.547,77.144,314.631,72.106,312.66,70.694Zm-.611,12.373s-7.079-3.952-6.568-5.266C305.48,77.8,312.623,81.67,312.048,83.067Z" transform="translate(-302.95 -64.333)"/>
      </g>
      <g id="Grupo_25" data-name="Grupo 25" transform="translate(30.454 21.86)">
        <path id="Trazado_53" data-name="Trazado 53" class="cls-3" d="M336.575,96.355a7.131,7.131,0,1,0,7.131,7.131A7.131,7.131,0,0,0,336.575,96.355Z" transform="translate(-312.494 -92.627)"/>
        <path id="Trazado_54" data-name="Trazado 54" class="cls-3" d="M355.853,93.934c-3.748,7.349-10.417,2.871-14.018.389-3.465-2.515-8.1-2.965-11.416-2.893a24.637,24.637,0,0,0-3.681.306c-.335.051-.526.088-.526.088h0c-5.247.948-9.251,3.381-12.157,4.9-5.4,2.19-6.461-1.314-6.461-1.314-.949,1.534-.438,5.877-.438,5.877,5.44-4.381,8.835,5.4,8.871,10.112s-3.687,3.578-3.687,3.578c.657,2.555,7.009,6.266,7.009,6.266-3.762-6.424,1.452-8.118,5.847-8.491,1.209-.041,2.472-.065,3.764-.058.707.034,1.147.079,1.147.079l.924.023v-.06a40.016,40.016,0,0,1,10.124,1.5c5.111,1.558,3.067,7.009,3.067,7.009,3.991-1.753,6.814-6.182,6.814-6.182-1.721.265-2.823-.583-3.261-2.385-1.382-6.215,2.044-9.054,4.137-11.682,2.044-2.92,4.722-.584,4.722-.584A35.119,35.119,0,0,0,355.853,93.934ZM331.1,110.24a7.958,7.958,0,1,1,7.958-7.958A7.958,7.958,0,0,1,331.1,110.24Z" transform="translate(-307.017 -91.423)"/>
      </g>
      <rect id="Rectángulo_93" data-name="Rectángulo 93" class="cls-3" width="110.099" height="23.751" transform="translate(0 86.541)"/>
      <g id="Grupo_26" data-name="Grupo 26" transform="translate(13.668 91.635)">
        <path id="Trazado_55" data-name="Trazado 55" class="cls-2" d="M294.74,196.069a13.644,13.644,0,0,1-4.1.714,6.145,6.145,0,0,1-4.232-1.391,5.138,5.138,0,0,1-1.6-3.913,7.48,7.48,0,0,1,2.6-5.793,8.679,8.679,0,0,1,5.587-1.843,8.5,8.5,0,0,1,3.366.565l-.808,2.295a6.852,6.852,0,0,0-2.691-.527,4.8,4.8,0,0,0-5.059,5.116,2.927,2.927,0,0,0,3.254,3.2,3.484,3.484,0,0,0,1.373-.226l.508-2.67h-1.956l.414-2.163H296Z" transform="translate(-284.809 -183.766)"/>
        <path id="Trazado_56" data-name="Trazado 56" class="cls-2" d="M303.221,184.231a15.592,15.592,0,0,1,3.386-.339,6.54,6.54,0,0,1,3.329.734,2.749,2.749,0,0,1,1.411,2.483,3.723,3.723,0,0,1-2.878,3.573v.076c.752.32,1.072,1.166,1.2,2.313a21.884,21.884,0,0,0,.489,3.593h-2.784a20.462,20.462,0,0,1-.376-2.991c-.113-1.543-.64-2.013-1.712-2.013h-.828l-.94,5h-2.69Zm1.637,5.4h1.128a2.278,2.278,0,0,0,2.54-2.126c0-1.016-.865-1.467-1.938-1.467a4.4,4.4,0,0,0-1.053.094Z" transform="translate(-288.722 -183.779)"/>
        <path id="Trazado_57" data-name="Trazado 57" class="cls-2" d="M320.468,184.017l-1.392,7.3a7.257,7.257,0,0,0-.131,1.5,1.7,1.7,0,0,0,1.843,1.806c1.411,0,2.351-.94,2.8-3.292l1.392-7.316h2.709l-1.373,7.2c-.734,3.837-2.427,5.681-5.869,5.681-2.614,0-4.214-1.336-4.214-4.044a9.94,9.94,0,0,1,.188-1.768l1.335-7.072Z" transform="translate(-292.483 -183.809)"/>
        <path id="Trazado_58" data-name="Trazado 58" class="cls-2" d="M333.789,184.231a14.856,14.856,0,0,1,3.31-.339,5.963,5.963,0,0,1,3.367.846,3.1,3.1,0,0,1,1.373,2.69A4.4,4.4,0,0,1,340.109,191a6.592,6.592,0,0,1-4.044,1.166,8.283,8.283,0,0,1-1.11-.076l-.865,4.571h-2.652Zm1.58,5.662a5,5,0,0,0,1.034.094,2.46,2.46,0,0,0,2.709-2.314c0-1.222-.884-1.617-1.937-1.617a4.847,4.847,0,0,0-1.091.094Z" transform="translate(-296.195 -183.779)"/>
        <path id="Trazado_59" data-name="Trazado 59" class="cls-2" d="M358.144,189.028a8.474,8.474,0,0,1-2.257,5.981,6.582,6.582,0,0,1-4.685,1.825c-3.291,0-5.135-2.332-5.135-5.285a8.445,8.445,0,0,1,2.332-6,6.644,6.644,0,0,1,4.627-1.806C356.376,183.742,358.144,186,358.144,189.028Zm-7.618-2.069a6.892,6.892,0,0,0-1.58,4.5c0,1.787.809,3.122,2.653,3.122a3.09,3.09,0,0,0,2.125-.921,7.229,7.229,0,0,0,1.543-4.552c0-1.58-.564-3.1-2.558-3.1A3,3,0,0,0,350.526,186.959Z" transform="translate(-299.768 -183.742)"/>
        <path id="Trazado_60" data-name="Trazado 60" class="cls-2" d="M377,187.312a3.28,3.28,0,0,1-2.2,2.9l-.019.056a3.142,3.142,0,0,1,1.693,2.709c0,2.671-2.558,4.007-4.947,4.007-2.577-.019-4.082-1.336-4.082-3.142a3.789,3.789,0,0,1,2.614-3.479l.02-.038a2.769,2.769,0,0,1-1.223-2.295c0-2.277,2.144-3.687,4.514-3.687C375.361,184.34,377,185.374,377,187.312Zm-3.367,5.926a1.992,1.992,0,0,0-1.58-1.862,2.233,2.233,0,0,0-1.768,2.106A1.445,1.445,0,0,0,371.825,195,1.748,1.748,0,0,0,373.631,193.237Zm-2.182-5.381c0,.791.62,1.28,1.43,1.562a2.072,2.072,0,0,0,1.5-1.806,1.228,1.228,0,0,0-1.316-1.3A1.6,1.6,0,0,0,371.449,187.857Z" transform="translate(-304.987 -183.888)"/>
        <path id="Trazado_61" data-name="Trazado 61" class="cls-2" d="M386.61,187.153h-.038l-2.408,1.072-.075-2.126,3.4-1.486h2.2L387.4,196.84h-2.614Z" transform="translate(-309.052 -183.955)"/>
      </g>
    </g>
  </g>
</svg>
